<svg width="120" height="78" viewBox="0 0 120 78" fill="none" xmlns="http://www.w3.org/2000/svg">
<path d="M22.8249 77.1422H13.6943C11.1134 77.1422 8.63817 76.1169 6.8132 74.292C4.98823 72.467 3.96298 69.9918 3.96298 67.4109V42.7102C3.96298 40.1293 4.98823 37.6541 6.8132 35.8292C8.63817 34.0042 11.1134 32.979 13.6943 32.979C16.2751 32.979 18.7503 34.0042 20.5753 35.8292C22.4003 37.6541 23.4255 40.1293 23.4255 42.7102V57.6796C28.4315 57.5132 33.1672 55.3684 36.5942 51.7156C40.0212 48.0627 41.8598 43.2 41.7069 38.1936C41.3713 27.8919 32.5025 19.9089 22.1974 19.9089H14.1439C10.3927 19.9089 6.79515 18.4187 4.14265 15.7662C1.49016 13.1137 0 9.51618 0 5.76499V0.459747H21.892C42.6565 0.459747 60.3675 16.5666 61.1527 37.3278C61.3443 42.4827 60.4951 47.6232 58.6557 52.4426C56.8162 57.2619 54.0244 61.661 50.4469 65.3773C46.8694 69.0936 42.5796 72.0507 37.8337 74.0721C33.0879 76.0935 27.9833 77.1376 22.8249 77.1422Z" fill="white"/>
<path d="M84.8973 53.0254C84.8973 47.6547 80.5435 43.3009 75.1727 43.3009C69.802 43.3009 65.4482 47.6547 65.4482 53.0254V66.9714C65.4482 72.3421 69.802 76.6959 75.1727 76.6959C80.5435 76.6959 84.8973 72.3421 84.8973 66.9714V53.0254Z" fill="white"/>
<path d="M75.1722 19.2814C80.4966 19.2814 84.8129 14.9651 84.8129 9.64071C84.8129 4.31632 80.4966 4.57764e-05 75.1722 4.57764e-05C69.8478 4.57764e-05 65.5316 4.31632 65.5316 9.64071C65.5316 14.9651 69.8478 19.2814 75.1722 19.2814Z" fill="white"/>
<path d="M110.275 76.5617C108.613 76.5611 106.978 76.1346 105.527 75.3228C104.076 74.5109 102.857 73.3409 101.987 71.9242L79.2226 34.7474C77.8818 32.55 77.4662 29.9109 78.0668 27.4079C78.6674 24.9048 80.2353 22.7417 82.4272 21.392C84.6283 20.0463 87.2737 19.6297 89.7818 20.2338C92.29 20.8379 94.4556 22.4132 95.8027 24.6134L100.551 32.3984V14.144C100.551 10.3928 102.041 6.79515 104.694 4.14266C107.346 1.49016 110.944 0 114.695 0H120V66.5384C120 69.8941 118.443 73.1658 115.618 74.9779C114.026 76.0083 112.171 76.5582 110.275 76.5617Z" fill="white"/>
</svg>
